<svg viewBox="0 0 335 375" xmlns="http://www.w3.org/2000/svg">
	<path d="M312.278 36.509c6.3-.571 7.336 3.128 6.676 8.744-.743 6.32-4.032 12.928-6.633 18.711-2.395 5.322-5.441 10.69-8.377 15.749-11.216 18.674-23.543 36.822-38.038 53.124-11.128 12.517-23.616 23.41-36.32 34.245-10.834 9.264-21.8 18.371-32.895 27.32.82 5.256 3.765 22.593 2.857 27.039-.271 1.329-.744 2.638-1.513 3.762-1.853 2.709-11.832 12.863-14.415 14.637-8.347-7.916-17.332-17.341-25.503-25.574-10.607-11.022-22.304-21.914-32.927-32.989 3.904-4.098 9.468-10.825 13.458-14.354 4.224-3.736 22.831.386 28.236 1.425 4.791-7.216 11.418-15.574 16.704-22.726 9.981-13.507 21-27.988 32.443-40.306 19.916-21.442 44.02-41.262 69.232-56.091 6.479-3.81 19.868-11.163 27.015-12.716zm-77.214 75.517c-13.916 2.74-14.493 25.545 3.068 23.271 6.711-1.815 11.414-8.197 9.597-15.17-.732-2.783-2.554-5.153-5.057-6.573-2.492-1.405-4.839-1.657-7.608-1.528zm-69.276-111.979c6.636-.505 11.461 3.214 16.909 6.435l15.891 9.399 63.168 36.916c-23.521 16.295-44.749 35.673-63.117 57.613-12.308 14.618-24.503 31.592-35.639 47.131-6.43-1.433-13.937-2.808-20.52-2.285-2.544.202-5.092.806-7.304 2.118-4.389 2.602-18.225 17.81-22.053 22.361.228 1.862.477 3.527 1.78 4.991 2.924 3.286 6.344 6.535 9.465 9.641l18.852 18.757 24.657 24.754c4.07 4.085 8.125 8.197 12.259 12.21 2.029 2.192 5.713 1.437 7.658-.512 5.96-5.974 12.681-12.255 18.103-18.653 5.038-5.946 3.663-13.996 2.712-21.085l-1.457-11.214 31.073-26.027c2.954-2.523 5.907-5.068 8.855-7.58 22.318-19.02 40.941-41.724 56.513-66.51 3.142-5.001 6.435-10.08 9.32-15.247.219.122.437.246.653.372l7.866 4.561c7.911 4.606 12.562 8.248 12.622 18.219.034 5.636.027 11.386.027 17.031v42.072l-.006 67.182.002 21.054c.007 7.198.909 16.669-2.723 23.102-1.241 2.2-3.707 4.538-5.856 5.869-7.697 4.767-15.478 9.421-23.225 14.111l-47.151 28.499-55.008 33.279c-5.933 3.573-22.513 14.589-28.039 15.929-7.311 1.771-12.827-1.9-18.823-5.508l-9.845-5.944-43.639-26.226c-6.546-3.926-14.963-9.32-21.508-12.805 3.932-1.362 8.656-3.448 12.503-5.139 19.069-8.384 38.533-19.415 53.016-34.626 12.238-12.851 16.678-25.257 16.13-42.692-12.857 42.487-72.161 71.736-111.959 82.041-5.051 1.308-11.087 1.93-16.276 2.453 25.122-16.468 44.162-42.988 55.995-70.311 9.83-22.7 14.662-37.159 39.189-47.65-1.867-1.755-3.774-3.468-5.716-5.141-.735-.024-1.472-.027-2.209-.008-37.186 1.053-42.978 34.746-53.886 62.346-4.757 12.037-13.186 27.221-22.09 36.685-11.574-7.272-23.955-13.807-35.395-21.308-7.88-5.168-7.517-13.66-7.519-22.063l.01-14.861.003-49.395-.004-61.036-.007-18.818c-.004-3.646-.155-7.69.131-11.292.411-5.19 3.579-10.377 8.014-13.059 8.992-5.437 18.051-10.705 27.096-16.022l48.129-28.42 47.663-28.215 15.849-9.354c5.536-3.312 12.447-8.413 18.862-9.125z" fill="currentColor"/>
</svg>
